<svg width="120.000000" height="120.000000" viewBox="0 0 120 120" fill="none" xmlns="http://www.w3.org/2000/svg" xmlns:xlink="http://www.w3.org/1999/xlink">
	<desc>
			Created with Pixso.
	</desc>
	<defs>
		<clipPath id="clip9_8">
			<rect rx="-0.500000" width="119.000000" height="119.000000" transform="translate(0.500000 0.500000)" fill="white" fill-opacity="0"/>
		</clipPath>
	</defs>
	<rect rx="-0.500000" width="119.000000" height="119.000000" transform="translate(0.500000 0.500000)" fill="#FFFFFF" fill-opacity="0"/>
	<g clip-path="url(#clip9_8)">
		<path d="M67.36 119.74C65.8 119.47 64.18 118.72 63.26 117.9C62.63 117.25 62.28 116.38 62.26 115.48C62.26 114.56 62.73 113.27 63.47 111.99C63.92 111.26 64.27 110.48 64.53 109.66C64.68 109.09 65.01 108.18 65.27 107.59L65.72 106.52L65.83 99.35C65.89 95.39 66.01 91.72 66.11 91.15C66.36 89.5 66.79 87.9 67.36 86.34L67.79 85.31L67.16 84.94C66.6 84.58 66.13 84.1 64.27 81.89C61.99 79.19 58.98 77.71 54.72 77.2C53.33 77.06 51.93 76.96 50.52 76.91C44.27 76.61 40.69 75.31 37.47 72.14C35.07 69.78 33.82 67.02 33.31 62.96C32.63 57.47 31.87 54.66 30.46 52.37C30.12 51.81 29.72 51.28 29.27 50.79L28.71 50.23L27.46 51.03C26.77 51.48 25.81 52.04 25.35 52.3C23.78 53.16 22.3 54.11 20.87 55.15C17.38 57.69 13.57 60.87 11.48 62.96C10.54 63.9 10.05 64.31 9.83 64.27C8.41 64.06 9.5 57.88 11.83 53.23C14.8 47.24 19.79 41.71 25.58 37.98C30.33 34.91 38 30.69 41.55 29.21C47.86 26.57 56.02 23.72 61.61 22.2C62.79 21.86 63.51 21.57 63.99 21.24C65.09 20.48 66.16 20.11 67.39 20.09C68.43 20.07 68.52 20.05 69.52 19.38C70.69 18.62 71.04 18.58 72.22 18.99L72.98 19.27L73.92 18.62L74.85 17.99L76.2 18.01C77.23 18.03 77.7 17.99 78.15 17.8C78.72 17.54 78.74 17.51 78.9 16.57C79.25 14.54 79.29 13.52 79.07 12.29C78.8 10.67 78.76 4.38 79.03 3.15C79.33 1.82 79.52 1.55 80.52 1.06C82 0.34 83.12 0.12 85.68 0.12C88.8 0.12 90.38 0.55 91.56 1.69C92.61 2.7 92.79 5.08 92.24 10.67C91.9 13.89 91.87 14.79 91.96 16.9C92 18.25 92.1 19.52 92.14 19.69C92.22 20.03 92.3 20.05 93.43 20.06C94.54 20.08 94.74 20.14 95.79 20.69C96.81 21.22 97.57 21.86 97.73 22.33C97.75 22.43 97.92 22.43 98.23 22.33C98.84 22.16 99.37 22.35 99.8 22.88C100.05 23.21 100.21 23.27 100.8 23.27C101.6 23.27 101.89 23.47 102.55 24.45C102.86 24.88 103.29 25.23 103.78 25.44C104.88 25.99 106.36 27.51 106.93 28.72C107.81 30.52 107.98 32.61 107.44 34.48C107.24 35.19 107.24 35.21 107.65 35.89C108.51 37.36 108.82 39.15 108.47 40.67L108.28 41.58L108.86 42.16C111.77 45.07 111.34 49.82 107.79 54.05C107.39 54.54 107.06 55.07 106.79 55.64C106.11 57.45 105.33 58.72 104.31 59.78L103.28 60.83L102.22 60.83C101.17 60.83 99.69 60.48 98.79 60.01C98.41 59.81 98.4 59.81 98.47 60.05C98.71 60.91 99.3 64.4 99.49 66.34C99.8 69.31 99.7 73.62 99.3 75.48C99 76.85 98.5 78.18 97.81 79.4C97.42 80.03 97.4 80.17 97.48 80.93C97.59 82 97.34 83.8 96.91 84.99C96.38 86.38 96.19 87.02 96.07 87.72C95.97 88.33 95.97 88.33 96.4 88.33C96.97 88.33 97.28 88.66 97.28 89.32C97.28 89.62 97.03 91.2 96.72 92.82C95.86 97.37 95.8 97.88 95.8 102.29C95.78 106.84 95.78 106.8 96.81 107.49L99.14 108.99C101.14 110.32 103.28 111.42 105.52 112.27C108.79 113.56 109.24 113.89 109.24 114.99C109.24 115.47 109.14 115.65 108.73 116.04C107.48 117.25 105.02 117.52 100.06 117C97.48 116.75 94.89 116.63 92.3 116.62C85.47 116.53 84.47 116.29 83.57 114.59C83.07 113.62 83.16 112.35 83.86 110.26C84.18 109.34 84.45 108.4 84.69 107.44C85.15 105.18 84.84 102.48 83.75 99.44L82.81 96.84C81.89 94.2 81.39 89.38 81.93 88.28C82.03 88.07 82.21 88.03 82.68 88.05L83.26 88.11L83.75 87.09C84.12 86.29 84.53 85.77 85.64 84.65L87.07 83.23L86.99 82.31C86.93 81.43 85.78 77.17 85.62 77.19C85.56 77.19 85.25 77.62 84.9 78.16C84.04 79.45 82.14 81.44 81.07 82.17C80.6 82.48 80.21 82.85 80.21 82.97C80.19 83.5 79.74 84.53 79.19 85.25C78.66 85.96 78.62 86.08 78.7 86.7C78.84 87.62 78.55 90.56 78.2 92.11C77.88 93.26 77.45 94.37 76.91 95.43C75.56 98.22 74.55 100.72 74.29 101.88C74.11 102.99 73.99 104.11 73.94 105.24C73.88 106.56 73.74 107.85 73.65 108.13C73.51 108.5 73.51 108.79 73.63 109.36C73.72 109.77 73.78 110.68 73.76 111.41C73.74 112.41 73.82 113.05 74.11 114.22C74.62 116.21 74.72 117.46 74.49 118.21C74.33 118.68 74.17 118.85 73.65 119.11C72.47 119.71 69.15 120.04 67.36 119.73L67.36 119.74ZM72.1 118.14C72.79 117.94 73.37 117.36 73.37 116.83C73.37 116.59 73.18 115.91 72.94 115.31C72.48 114.16 71.67 111.11 71.67 110.6C71.67 110.35 71.69 110.33 72.08 110.54L72.51 110.78L72.51 110.23C72.45 109.73 72.34 109.23 72.18 108.75C71.81 107.63 71.77 107.61 69.4 107.47L67.8 107.4L67.22 107.96C66.9 108.29 66.61 108.66 66.38 109.06C66.12 109.56 66.03 110.33 66.18 110.5C66.22 110.56 66.61 110.5 67.04 110.4C67.3 110.33 67.56 110.28 67.82 110.27C67.82 110.29 67.39 110.64 66.85 111.01C64.5 112.77 63.68 113.84 63.68 115.21C63.68 116.64 65.03 117.75 67.14 118.08C68.58 118.3 71.4 118.36 72.1 118.14L72.1 118.14ZM103.88 115.81C104.47 115.11 104.39 114.39 103.65 113.57C103.21 113.14 102.73 112.77 102.18 112.47C101.63 112.18 101.08 111.85 100.54 111.5C99.55 110.86 98.53 110.26 97.49 109.7C96.59 109.21 95.71 108.7 94.85 108.16L94.5 107.89L94.5 102.52C94.5 97.23 94.48 97.15 94.21 97.22C92.84 97.6 90.57 97.77 87.7 97.71L84.6 97.67L85.05 98.77C85.89 100.84 86.32 103.62 86.32 106.8C86.32 107.99 86.24 108.42 85.95 109.26C85.79 109.67 85.66 110.08 85.52 110.49C85.46 110.67 85.68 110.8 86.47 111.04C87.06 111.21 87.92 111.39 88.41 111.45L89.31 111.54L89.21 112.44C89.11 113.46 89.23 114.53 89.49 114.87C89.64 115.06 90.23 115.14 92.94 115.26C94.99 115.35 97.22 115.57 98.98 115.82C100.5 116.06 102.14 116.25 102.63 116.25C103.45 116.27 103.53 116.23 103.88 115.82L103.88 115.81ZM72.61 106.68C72.69 106.62 72.81 105.56 72.85 104.31C73.01 100.82 73.14 100.31 74.9 96.36C76.35 93.14 77.11 90.13 77.05 88L77.01 86.73L76.47 87.26C75.33 88.39 76.11 86.62 77.46 85.03C78.48 83.82 78.83 83.16 78.99 82.09C79.06 81.65 79.22 81.44 79.89 80.93C82.37 79.06 84.28 76.53 85.41 73.63C85.69 72.92 86.39 70.52 86.98 68.3C88.07 64.18 88.66 62.4 89.19 61.64C89.38 61.34 89.46 61.28 89.42 61.48C89.14 62.53 88.92 63.59 88.76 64.66C88.6 65.62 88.31 67.49 88.11 68.8C87.74 71.48 87.35 73.2 86.82 74.53L86.47 75.43L87.41 77.85C88.38 80.33 88.83 82.13 88.91 83.86L88.97 84.84L88.21 85C87.21 85.17 86.31 85.73 85.71 86.56C85.05 87.52 84.67 88.3 84.85 88.47C84.93 88.55 85.89 88.73 86.98 88.86C88.68 89.06 89.32 89.06 91.57 88.92C92.55 88.89 93.51 88.79 94.46 88.65C94.68 88.57 94.89 88.14 95.24 87.03C96.04 84.47 96.2 83.57 96.1 81.77L96.02 80.19L96.43 79.66C97.39 78.45 98.13 76.27 98.44 73.71C98.81 70.58 98.13 64.04 96.86 58.41C96.25 55.73 96 54.13 96 52.96L96 51.93L95.04 52.03C91.6 52.4 87.45 52.3 84.91 51.77C83.52 51.5 80.02 50.46 79.26 50.13L78.66 49.85L78.58 50.54C78.52 50.91 78.46 51.28 78.39 51.67C78.27 52.08 78.31 52.18 79.03 52.88C79.93 53.8 80.2 54.27 80.2 54.89C80.2 55.28 79.99 55.6 78.9 56.73C78.11 57.57 77.24 58.32 76.3 58.97L75.03 59.83L74.48 61.73C72.52 68.66 72.15 74.97 73.44 79.48L73.75 80.61L73.13 81.39C70.78 84.34 69.4 86.59 69.18 87.84C69.06 88.46 68.91 89.07 68.75 89.68C68.25 91.61 67.85 94.44 67.68 97.51C67.56 100.08 67.39 102.64 67.17 105.21L67.08 105.97L68.05 106.26C68.6 106.44 69.42 106.63 69.89 106.71C70.76 106.84 72.39 106.81 72.64 106.67L72.61 106.68ZM91.58 95.93C93.1 95.83 94.49 95.6 94.76 95.36C94.88 95.29 95.02 94.88 95.05 94.47L95.15 93.72L93.94 94C92.98 94.19 92.03 94.31 91.07 94.39C88.76 94.48 86.44 94.42 84.15 94.19C83.39 94.08 83.39 94.08 83.62 95.07C83.82 95.81 83.86 95.85 85.85 95.99C87.18 96.1 89.04 96.09 91.57 95.93L91.58 95.93ZM90.31 92.53C92.3 92.36 94.78 91.93 95.27 91.67C95.43 91.6 95.56 91.3 95.62 90.97L95.8 89.93L95.89 89.45L95.41 89.54C93.24 89.99 91.6 90.13 88.32 90.13C85.11 90.13 84.74 90.11 83.9 89.82C83.58 89.68 83.23 89.6 82.89 89.58C82.75 89.66 82.73 90.77 82.85 91.55C82.93 92.02 83.01 92.1 83.47 92.24C84.96 92.65 87.46 92.74 90.31 92.51L90.31 92.53ZM54.06 74.92C59.06 73.47 65.6 69.23 70.95 63.92C72.69 62.18 72.91 61.95 73.14 61.17L73.45 60.17C73.49 60.09 73.18 59.96 72.77 59.86C71.69 59.61 70.87 58.98 70.87 58.42C70.87 58.08 70.68 57.75 70.11 57.14C69.19 56.11 68.96 55.66 68.86 54.67L68.79 53.86L67.69 53.08C67.06 52.63 64.88 51.42 62.55 50.25C60.78 49.39 59.05 48.45 57.36 47.44C55.41 46.13 54.1 44.57 53.35 42.71C53.22 42.34 53.04 42.03 52.98 42.03C52.83 42.03 48.43 46.27 46.56 48.26C41.93 53.14 38.74 57.38 36.73 61.31C36.22 62.28 35.68 63.44 35.52 63.86L35.23 64.65L35.58 65.95C35.79 66.66 36.24 67.81 36.59 68.49C37.83 70.92 39.29 72.38 41.71 73.57C44.31 74.86 46.62 75.31 50.46 75.25C52.53 75.23 53.14 75.17 54.06 74.9L54.06 74.92ZM14.61 57.79C17.89 54.88 22.42 51.69 27.97 48.39C31.6 46.22 45.64 39.19 52.11 36.32C53.28 35.79 54.34 35.3 54.45 35.25C54.57 35.17 54.9 34.33 55.21 33.39C56.58 29.06 57.27 28.2 59.74 27.63C60.06 27.55 60.13 27.46 60.13 27.14C60.13 26.58 60.52 25.27 60.86 24.68C61.11 24.23 61.11 24.22 60.9 24.28C60.76 24.31 59.94 24.55 59.08 24.8C47.17 28.24 36.76 32.81 27.77 38.52C18.18 44.61 12.66 51.91 11.05 60.66L10.94 61.31L12.11 60.16C12.74 59.51 13.87 58.46 14.61 57.81L14.61 57.79ZM102.99 59.45C103.94 58.96 105.43 56.71 105.97 54.94C106.13 54.31 106.44 53.72 106.89 53.24C108.34 51.64 109.53 48.73 109.55 46.73C109.55 43.63 107.79 42.44 105.23 43.76C104.9 43.92 104.63 44.04 104.59 44C104.45 43.87 105.17 43.16 106.05 42.61C107.2 41.85 107.42 41.4 107.42 39.78C107.44 38.47 107.05 37.19 106.31 36.11C105.96 35.58 105.82 35.23 105.88 35.02L106.23 33.71C106.72 31.97 106.54 29.98 105.78 28.71C104.65 26.8 103.26 25.86 101.32 25.7L100.19 25.62L100.86 26.36C102.83 28.49 103.78 31.17 103.39 33.46C103.2 34.63 103.02 34.86 101.89 35.31L101.23 35.59L101.31 36.49C101.44 37.95 101.19 39.02 100.25 41C99.78 41.99 99.43 42.89 99.47 42.99C99.59 43.32 100.88 43.95 101.89 44.2L102.89 44.44L102.27 44.65C101.44 44.9 101.27 45.28 101.27 46.62C101.27 47.85 101.44 48.36 102.34 49.71C102.75 50.29 103.02 50.9 103.06 51.25C103.14 51.8 103.12 51.83 102.67 51.99C102.16 52.14 101.64 52.22 101.11 52.25C99.27 52.36 99.14 52.42 98.32 53.2C97.57 53.91 97.56 53.95 97.56 54.73C97.56 55.8 97.96 57.97 98.22 58.26C98.55 58.61 100.41 59.53 101.13 59.67C101.75 59.83 102.41 59.75 102.99 59.46L102.99 59.45ZM75.93 57.98C77.12 57.05 78.06 56.11 78.59 55.31C78.92 54.82 78.94 54.72 78.78 54.31C78.51 53.68 76.71 52.06 75.72 51.58C75.05 51.28 74.35 51.08 73.63 50.97L72.4 50.81L71.64 49.86C70.05 47.9 69.18 46.38 67.92 43.43C66.83 40.93 65.87 39.47 64.35 38.02C63.72 37.43 63.28 36.95 63.31 36.95C63.39 36.95 64.14 37.32 64.99 37.77C66.42 38.53 66.6 38.59 67.24 38.49C69.57 38.22 71.62 35.54 72.36 31.79C72.57 30.74 73 29.67 73.45 29.02C73.47 29 74.37 29.59 75.43 30.35C78.1 32.24 78.69 32.53 80.21 32.59C81.21 32.63 81.78 32.56 83.57 32.12C87.4 31.19 91.54 30.82 94.06 31.15C95.49 31.34 97.54 31.97 99.06 32.69C100.56 33.4 100.86 33.43 101.34 33C101.75 32.65 101.75 32.59 101.75 31.28C101.73 29.35 101.03 27.26 99.96 26.01C99.41 25.37 97.87 24.31 96.34 23.51C95.8 23.22 95.26 22.93 94.72 22.63C94 22.2 93.18 22.26 90.95 22.85C88.37 23.51 87.69 23.51 84.74 22.75C82.24 22.12 82.09 22.11 79.62 22.49C78.31 22.69 75.03 22.57 73.94 22.28C73.39 22.12 72.84 21.97 72.32 21.77C71.36 21.4 69.7 21.34 68.2 21.62C65.21 22.15 62.94 23.77 62.12 25.97C61.69 27.08 61.75 27.61 62.32 27.96C63.22 28.53 64.41 30.07 64.41 30.68C64.41 30.71 64.11 30.46 63.78 30.11C62.94 29.23 62.18 28.84 61.28 28.84C60.7 28.86 60.13 29.03 59.64 29.36C59.16 29.68 58.77 30.13 58.53 30.65C58.26 31.34 58.04 32.05 57.86 32.77C57.31 34.76 56.83 35.81 55.79 37.22C54.87 38.49 54.74 39.06 55.07 40.48C55.89 44.08 57.31 45.52 63.27 48.9C66.39 50.68 67.99 51.68 69.17 52.55C70.07 53.22 70.09 53.26 70.01 53.77C69.83 54.94 70.57 56.21 72.04 57.24C72.41 57.5 72.64 57.77 72.64 57.97C72.64 58.32 73.64 58.81 74.36 58.81C74.77 58.81 75.08 58.63 75.93 57.98L75.93 57.98ZM100.02 51.4C102.28 51.48 102.4 51.3 101.19 49.9C99.92 48.43 99.57 47.24 100.04 45.93L100.23 45.43L99.43 45.04C99.16 44.9 98.88 44.76 98.61 44.67C98.47 45.19 98.34 45.7 98.22 46.23C97.93 47.42 97.57 50.51 97.56 51.82C97.56 51.93 97.75 51.89 98.08 51.68C98.55 51.41 98.79 51.37 100.02 51.41L100.02 51.4ZM92.42 51.28C93.79 51.21 95.19 51.11 95.56 51.05L96.25 50.95L96.33 48.7C96.44 45.5 96.91 43.61 98.3 40.58C99.27 38.43 99.7 36.55 99.49 35.15C99.41 34.54 99.37 34.5 98.55 34.15C97.05 33.55 95.48 33.13 93.88 32.88C92.34 32.66 87.81 32.78 86.11 33.11C85.41 33.23 84.12 33.5 83.26 33.72C81.13 34.21 80 34.15 78.38 33.45C76.78 32.74 75.76 32.1 74.8 31.2C74.04 30.49 73.96 30.46 73.77 30.69C73.61 30.87 73.53 31.4 73.48 32.53C73.42 34.27 73.14 35.18 72.38 36.41C72.21 36.67 72.07 36.94 71.95 37.22C71.95 37.28 72.54 37.96 73.26 38.7C75.76 41.3 76.99 41.96 78.96 41.83C79.61 41.77 80.06 41.79 80.06 41.86C80.06 42.02 78.79 43.02 78.26 43.29C78.01 43.42 77.95 43.56 77.99 43.86L78.3 45.91C78.48 47.08 78.61 47.62 78.79 47.78C79.26 48.17 81.68 49.42 83.2 50.05C85.19 50.85 86.29 51.14 87.81 51.28C89.68 51.43 89.72 51.43 92.42 51.28L92.42 51.28ZM76.27 49.14C76.3 49.08 76.17 47.94 75.91 46.63C75.6 44.86 75.43 44.21 75.23 44.03C75.1 43.92 74.37 43.41 73.65 42.88C72.7 42.2 71.8 41.45 70.95 40.64L69.61 39.31L68.88 39.68L68.12 40.09C68.19 40.4 68.29 40.69 68.43 40.97C68.65 41.44 69.08 42.59 69.39 43.52C70.21 45.97 70.86 47.14 72.48 49.27L73.08 50.07L74.23 50.24C74.87 50.34 75.52 50.48 75.7 50.54C75.97 50.65 76.01 50.6 76.09 49.97C76.12 49.7 76.18 49.4 76.26 49.13L76.27 49.14ZM101.01 24.84C102.01 24.74 102.19 24.6 101.76 24.16C101.48 23.88 100.86 23.86 100.35 24.1C100.02 24.25 99.94 24.21 99.41 23.65C98.86 23.04 98.83 23.02 98.14 23.1C97.51 23.18 97.42 23.16 97.34 22.9C97.09 22.48 96.79 22.1 96.44 21.77C95.99 21.27 95.44 20.87 94.82 20.62C93.61 20.15 92.92 20.21 91.77 20.86C88.43 22.67 88.57 22.65 85.34 21.83C82.33 21.07 80.09 20.29 79.36 19.8C78.76 19.39 77.47 18.94 76.39 18.8C75.59 18.68 75.08 18.86 74.32 19.48L73.92 19.82L74.29 20.46C74.79 21.36 74.74 21.42 73.98 20.75C73.15 20.07 72.18 19.6 71.55 19.58C71.1 19.58 69.78 20.17 69.62 20.42C69.56 20.5 69.97 20.6 70.52 20.64C71.08 20.7 71.86 20.89 72.39 21.1C73.76 21.69 74.46 21.88 75.71 22C77.08 22.14 79.56 21.98 79.85 21.75C80.01 21.61 80.44 21.59 81.34 21.67C82.53 21.75 83.02 21.86 85.85 22.63C87.49 23.08 88.64 23.03 90.6 22.51C91.5 22.25 92.63 22 93.1 21.94C93.9 21.86 94.05 21.91 95.31 22.47C97.3 23.37 98.35 23.94 98.94 24.46C99.52 24.97 99.6 24.97 101.01 24.85L101.01 24.84ZM89.88 21.42L91.07 20.8L91.03 19.58C91.02 18.74 90.97 17.92 90.94 17.11L90.84 15.86L89.65 16.78C88.94 17.32 88.26 17.73 87.97 17.79C87.11 17.95 82.87 17.79 82.48 17.58C81.95 17.19 81.46 16.76 81.01 16.29L79.92 15.17L79.9 15.84C79.9 16.19 79.86 16.79 79.78 17.17C79.68 17.87 79.68 17.89 80.44 18.85C80.85 19.37 81.19 19.84 81.19 19.9C81.19 20.27 86.83 22.03 88.1 22.05C88.51 22.05 89.02 21.87 89.88 21.42ZM87.61 16.99C89.02 16.71 89.7 15.7 90.23 13.12C90.78 10.34 91.05 5.99 90.8 4.13C90.56 2.45 88.69 1.71 85.11 1.83C82.89 1.91 81.97 2.12 81.21 2.77C80.74 3.16 80.74 3.2 80.52 5.05C80.13 8.6 80.72 13.66 81.73 15.56C82.22 16.48 82.65 16.81 83.55 16.96C84.57 17.14 86.73 17.14 87.61 16.98L87.61 16.99Z" fill="#000000" fill-opacity="1.000000" fill-rule="nonzero"/>
	</g>
</svg>
