<svg width="88.000000" height="87.000000" viewBox="0 0 88 87" fill="none" xmlns="http://www.w3.org/2000/svg" xmlns:xlink="http://www.w3.org/1999/xlink">
	<desc>
			Created with Pixso.
	</desc>
	<defs>
		<clipPath id="clip9_31">
			<rect rx="-0.500000" width="87.000000" height="86.000000" transform="translate(0.500000 0.500000)" fill="white" fill-opacity="0"/>
		</clipPath>
	</defs>
	<rect rx="-0.500000" width="87.000000" height="86.000000" transform="translate(0.500000 0.500000)" fill="#FFFFFF" fill-opacity="0"/>
	<g clip-path="url(#clip9_31)">
		<path d="M0 75.78C0 81.97 5.08 87 11.34 87L76.65 87C82.92 87 88 81.97 88 75.78L88 11.21C88 5.02 82.91 0 76.65 0L11.34 0C5.07 0 0 5.02 0 11.21L0 75.78L0 75.78Z" fill="#563D7C" fill-opacity="1.000000" fill-rule="nonzero"/>
		<path d="M36.49 38.48L36.49 26.16L47.46 26.16C48.5 26.16 49.51 26.24 50.48 26.42C51.45 26.59 52.31 26.9 53.05 27.34C53.8 27.78 54.4 28.4 54.84 29.18C55.29 29.97 55.52 30.98 55.52 32.21C55.52 34.42 54.84 36.02 53.5 37C52.16 37.99 50.44 38.48 48.35 38.48L36.49 38.48ZM24.77 17.16L24.77 69.83L50.59 69.83C52.98 69.83 55.3 69.54 57.57 68.95C59.83 68.36 61.85 67.45 63.61 66.22C65.38 64.99 66.78 63.4 67.83 61.46C68.87 59.52 69.4 57.22 69.4 54.56C69.4 51.27 68.59 48.45 66.97 46.11C65.35 43.78 62.9 42.14 59.62 41.21C62.01 40.08 63.81 38.63 65.03 36.86C66.25 35.08 66.86 32.87 66.86 30.22C66.86 27.76 66.45 25.69 65.63 24.02C64.81 22.35 63.65 21.01 62.16 20C60.66 18.99 58.87 18.26 56.78 17.82C54.69 17.38 52.38 17.16 49.84 17.16L24.77 17.16ZM36.49 60.83L36.49 46.37L49.25 46.37C51.78 46.37 53.82 46.95 55.37 48.11C56.91 49.26 57.68 51.19 57.68 53.9C57.68 55.27 57.44 56.41 56.97 57.29C56.5 58.18 55.86 58.88 55.07 59.39C54.27 59.91 53.35 60.28 52.31 60.5C51.26 60.72 50.17 60.83 49.02 60.83L36.49 60.83Z" fill="#FFFFFF" fill-opacity="1.000000" fill-rule="nonzero"/>
	</g>
</svg>
