<svg width="104.918045" height="99.604095" viewBox="0 0 104.918 99.6041" fill="none" xmlns="http://www.w3.org/2000/svg" xmlns:xlink="http://www.w3.org/1999/xlink">
	<desc>
			Created with Pixso.
	</desc>
	<defs/>
	<path id="Vector" d="M72.69 69.56C76.56 69.16 79.5 65.82 79.37 61.81C79.23 57.81 75.9 54.6 71.89 54.6L71.62 54.6C67.48 54.74 64.28 58.21 64.41 62.35C64.55 64.35 65.35 66.09 66.55 67.29C62.01 76.23 55.07 82.78 44.65 88.25C37.58 91.99 30.24 93.32 22.89 92.39C16.88 91.59 12.21 88.92 9.27 84.51C5 77.97 4.6 70.89 8.21 63.82C10.74 58.74 14.75 55 17.28 53.13C16.75 51.4 15.95 48.46 15.55 46.33C-3.81 60.35 -1.81 79.3 4.07 88.25C8.47 94.93 17.42 99.07 27.3 99.07C29.97 99.07 32.64 98.8 35.31 98.13C52.4 94.79 65.35 84.65 72.69 69.56ZM96.19 53C86.04 41.12 71.09 34.58 54 34.58L51.86 34.58C50.66 32.17 48.13 30.57 45.32 30.57L45.05 30.57C40.92 30.7 37.71 34.18 37.85 38.31C37.98 42.32 41.32 45.52 45.32 45.52L45.59 45.52C48.53 45.39 51.06 43.52 52.13 40.98L54.53 40.98C64.68 40.98 74.29 43.92 82.97 49.66C89.65 54.07 94.45 59.81 97.12 66.75C99.39 72.36 99.26 77.84 96.86 82.51C93.12 89.59 86.84 93.46 78.57 93.46C73.23 93.46 68.15 91.85 65.48 90.65C64.01 91.99 61.34 94.12 59.47 95.46C65.22 98.13 71.09 99.6 76.7 99.6C89.51 99.6 98.99 92.52 102.6 85.45C106.47 77.7 106.2 64.35 96.19 53ZM28.37 71.83C28.5 75.83 31.84 79.04 35.84 79.04L36.11 79.04C40.25 78.9 43.45 75.43 43.32 71.29C43.19 67.29 39.85 64.08 35.84 64.08L35.58 64.08C35.31 64.08 34.91 64.08 34.64 64.22C29.17 55.14 26.9 45.26 27.7 34.58C28.23 26.56 30.9 19.62 35.58 13.88C39.45 8.94 46.92 6.54 52 6.4C66.15 6.14 72.16 23.76 72.56 30.84C74.29 31.24 77.23 32.17 79.23 32.84C77.63 11.21 64.28 0 51.46 0C39.45 0 28.37 8.67 23.96 21.49C17.82 38.58 21.82 55 29.3 67.96C28.63 68.89 28.23 70.36 28.37 71.83L28.37 71.83Z" fill="#764ABC" fill-opacity="1.000000" fill-rule="nonzero"/>
</svg>
