<svg width="131.000000" height="131.000000" viewBox="0 0 131 131" fill="none" xmlns="http://www.w3.org/2000/svg" xmlns:xlink="http://www.w3.org/1999/xlink">
	<desc>
			Created with Pixso.
	</desc>
	<defs>
		<clipPath id="clip9_29">
			<rect rx="-0.500000" width="130.000000" height="130.000000" transform="translate(0.500000 0.500000)" fill="white" fill-opacity="0"/>
		</clipPath>
	</defs>
	<rect rx="-0.500000" width="130.000000" height="130.000000" transform="translate(0.500000 0.500000)" fill="#FFFFFF" fill-opacity="0"/>
	<g clip-path="url(#clip9_29)">
		<path d="M36.84 56.08C40.66 40.8 50.21 33.15 65.5 33.15C88.42 33.15 91.29 50.35 102.75 53.21C110.39 55.12 117.08 52.26 122.81 44.62C118.99 59.9 109.44 67.54 94.15 67.54C71.23 67.54 68.36 50.35 56.9 47.48C49.26 45.57 42.57 48.44 36.84 56.08ZM8.18 90.47C12 75.18 21.56 67.54 36.84 67.54C59.76 67.54 62.63 84.74 74.09 87.6C81.73 89.51 88.42 86.65 94.15 79C90.33 94.29 80.78 101.93 65.5 101.93C42.57 101.93 39.7 84.74 28.24 81.87C20.6 79.96 13.91 82.83 8.18 90.47Z" fill="#44A8B3" fill-opacity="1.000000" fill-rule="nonzero"/>
	</g>
</svg>
