<svg width="120.000000" height="120.000000" viewBox="0 0 120 120" fill="none" xmlns="http://www.w3.org/2000/svg" xmlns:xlink="http://www.w3.org/1999/xlink">
	<desc>
			Created with Pixso.
	</desc>
	<defs>
		<clipPath id="clip9_22">
			<rect rx="-0.500000" width="119.000000" height="119.000000" transform="translate(0.500000 0.500000)" fill="white" fill-opacity="0"/>
		</clipPath>
	</defs>
	<rect rx="-0.500000" width="119.000000" height="119.000000" transform="translate(0.500000 0.500000)" fill="#FFFFFF" fill-opacity="0"/>
	<g clip-path="url(#clip9_22)">
		<path d="M7.5 7.5L112.5 7.5L112.5 112.5L7.5 112.5L7.5 7.5Z" fill="#F5DE19" fill-opacity="1.000000" fill-rule="nonzero"/>
		<path d="M78.03 89.53C78.92 91.34 80.31 92.87 82.04 93.93C83.76 94.99 85.75 95.55 87.78 95.53C91.87 95.53 94.48 93.48 94.48 90.65C94.48 87.28 91.8 86.07 87.3 84.1L84.83 83.04C77.7 80.01 72.98 76.21 72.98 68.18C72.98 60.78 78.6 55.14 87.43 55.14C90.28 54.94 93.14 55.58 95.63 56.98C98.13 58.39 100.15 60.49 101.46 63.04L93.75 67.98C93.24 66.71 92.37 65.63 91.24 64.87C90.11 64.12 88.77 63.72 87.41 63.75C86.82 63.69 86.22 63.75 85.65 63.94C85.08 64.12 84.56 64.42 84.12 64.82C83.67 65.22 83.32 65.7 83.07 66.25C82.83 66.79 82.7 67.38 82.69 67.98C82.69 70.93 84.52 72.13 88.76 73.98L91.23 75.03C99.61 78.63 104.35 82.29 104.35 90.53C104.35 99.42 97.37 104.28 88 104.28C84.35 104.52 80.71 103.69 77.52 101.9C74.33 100.11 71.72 97.43 70.02 94.19L78.03 89.53ZM43.17 90.38C44.72 93.13 46.13 95.46 49.52 95.46C52.76 95.46 54.81 94.19 54.81 89.26L54.81 55.71L64.68 55.71L64.68 89.39C64.68 99.6 58.68 104.25 49.94 104.25C46.85 104.42 43.79 103.65 41.15 102.05C38.5 100.44 36.41 98.07 35.14 95.25L43.17 90.38Z" fill="#000000" fill-opacity="1.000000" fill-rule="nonzero"/>
	</g>
</svg>
