<svg width="112.000000" height="112.000000" viewBox="0 0 112 112" fill="none" xmlns="http://www.w3.org/2000/svg" xmlns:xlink="http://www.w3.org/1999/xlink">
	<desc>
			Created with Pixso.
	</desc>
	<defs>
		<clipPath id="clip9_25">
			<rect rx="-0.500000" width="111.000000" height="111.000000" transform="translate(0.500000 0.500000)" fill="white" fill-opacity="0"/>
		</clipPath>
	</defs>
	<rect rx="-0.500000" width="111.000000" height="111.000000" transform="translate(0.500000 0.500000)" fill="#FFFFFF" fill-opacity="0"/>
	<g clip-path="url(#clip9_25)">
		<path d="M101.53 17.6L81.35 7.88C80.21 7.33 78.93 7.15 77.68 7.37C76.43 7.58 75.28 8.17 74.39 9.07L8.32 69.3C7.52 70.02 7.04 71.04 6.99 72.12C6.94 73.2 7.32 74.26 8.04 75.06C8.13 75.15 8.22 75.25 8.31 75.33L13.71 80.23C14.41 80.87 15.32 81.24 16.27 81.29C17.22 81.33 18.16 81.04 18.92 80.46L98.49 20.12C99.09 19.66 99.81 19.38 100.56 19.31C101.31 19.24 102.07 19.38 102.74 19.72C103.42 20.05 103.99 20.57 104.39 21.21C104.78 21.85 105 22.59 105 23.35L105 23.11C105 21.96 104.67 20.83 104.06 19.86C103.44 18.88 102.57 18.1 101.53 17.6Z" fill="#0065A9" fill-opacity="1.000000" fill-rule="nonzero"/>
		<path d="M101.53 94.39L81.35 104.11C80.21 104.66 78.93 104.84 77.68 104.63C76.43 104.41 75.28 103.82 74.39 102.93L8.32 42.7C7.52 41.97 7.04 40.95 6.99 39.87C6.94 38.79 7.32 37.73 8.04 36.93C8.13 36.84 8.22 36.75 8.31 36.66L13.71 31.76C14.41 31.12 15.32 30.74 16.28 30.7C17.23 30.66 18.17 30.95 18.93 31.53L98.49 91.87C99.09 92.33 99.81 92.61 100.56 92.68C101.31 92.75 102.07 92.61 102.74 92.27C103.42 91.94 103.99 91.42 104.39 90.78C104.78 90.14 105 89.4 105 88.64L105 88.9C104.99 90.04 104.66 91.17 104.05 92.14C103.44 93.11 102.57 93.89 101.53 94.39Z" fill="#007ACC" fill-opacity="1.000000" fill-rule="nonzero"/>
		<path d="M81.35 104.11C80.21 104.66 78.93 104.84 77.68 104.63C76.43 104.41 75.28 103.82 74.39 102.93C74.89 103.42 75.53 103.76 76.22 103.89C76.91 104.03 77.63 103.96 78.28 103.69C78.94 103.42 79.49 102.96 79.89 102.37C80.28 101.79 80.49 101.1 80.5 100.39L80.5 11.6C80.5 10.89 80.29 10.2 79.89 9.61C79.5 9.02 78.94 8.56 78.28 8.29C77.63 8.02 76.91 7.94 76.21 8.08C75.51 8.22 74.87 8.56 74.37 9.07C75.27 8.17 76.42 7.58 77.67 7.36C78.91 7.15 80.19 7.33 81.33 7.88L101.51 17.58C102.55 18.08 103.43 18.86 104.05 19.84C104.67 20.81 104.99 21.94 105 23.1L105 88.9C105 90.05 104.67 91.18 104.06 92.15C103.44 93.13 102.57 93.91 101.53 94.41L81.35 104.11Z" fill="#1F9CF0" fill-opacity="1.000000" fill-rule="nonzero"/>
	</g>
</svg>
