<svg width="120.000000" height="120.000000" viewBox="0 0 120 120" fill="none" xmlns="http://www.w3.org/2000/svg" xmlns:xlink="http://www.w3.org/1999/xlink">
	<desc>
			Created with Pixso.
	</desc>
	<defs>
		<clipPath id="clip9_10">
			<rect rx="-0.500000" width="119.000000" height="119.000000" transform="translate(0.500000 0.500000)" fill="white" fill-opacity="0"/>
		</clipPath>
	</defs>
	<rect rx="-0.500000" width="119.000000" height="119.000000" transform="translate(0.500000 0.500000)" fill="#FFFFFF" fill-opacity="0"/>
	<g clip-path="url(#clip9_10)">
		<path d="M22.13 102L13.7 7.5L106.29 7.5L97.85 101.98L59.94 112.5L22.13 102Z" fill="#E44F26" fill-opacity="1.000000" fill-rule="nonzero"/>
		<path d="M60 104.46L90.63 95.97L97.84 15.22L60 15.22L60 104.46Z" fill="#F1662A" fill-opacity="1.000000" fill-rule="nonzero"/>
		<path d="M60 50.27L44.66 50.27L43.6 38.4L60 38.4L60 26.81L30.93 26.81L31.21 29.92L34.06 61.86L60 61.86L60 50.27ZM60 80.37L59.94 80.39L47.04 76.9L46.21 67.66L34.57 67.66L36.2 85.86L59.94 92.45L60 92.43L60 80.37Z" fill="#EBEBEB" fill-opacity="1.000000" fill-rule="nonzero"/>
		<path d="M59.95 50.27L59.95 61.86L74.23 61.86L72.88 76.9L59.95 80.38L59.95 92.44L83.72 85.86L83.89 83.9L86.61 53.38L86.9 50.27L59.95 50.27ZM59.95 26.81L59.95 38.4L87.95 38.4L88.18 35.8L88.71 29.92L88.99 26.81L59.95 26.81Z" fill="#FFFFFF" fill-opacity="1.000000" fill-rule="nonzero"/>
	</g>
</svg>
