<svg width="120.000000" height="119.000000" viewBox="0 0 120 119" fill="none" xmlns="http://www.w3.org/2000/svg" xmlns:xlink="http://www.w3.org/1999/xlink">
	<desc>
			Created with Pixso.
	</desc>
	<defs>
		<clipPath id="clip9_15">
			<rect rx="-0.500000" width="119.000000" height="118.000000" transform="translate(0.500000 0.500000)" fill="white" fill-opacity="0"/>
		</clipPath>
	</defs>
	<rect rx="-0.500000" width="119.000000" height="118.000000" transform="translate(0.500000 0.500000)" fill="#FFFFFF" fill-opacity="0"/>
	<g clip-path="url(#clip9_15)">
		<path d="M22.13 101.15L13.71 7.43L106.29 7.43L97.85 101.13L59.94 111.56L22.13 101.15Z" fill="#1572B6" fill-opacity="1.000000" fill-rule="nonzero"/>
		<path d="M60 103.59L90.63 95.17L97.84 15.1L60 15.1L60 103.59Z" fill="#33A9DC" fill-opacity="1.000000" fill-rule="nonzero"/>
		<path d="M60 49.05L75.33 49.05L76.39 37.28L60 37.28L60 25.78L89.06 25.78L88.78 28.87L85.93 60.54L60 60.54L60 49.05Z" fill="#FFFFFF" fill-opacity="1.000000" fill-rule="nonzero"/>
		<path d="M60.07 78.9L60.01 78.91L47.11 75.46L46.28 66.29L34.65 66.29L36.27 84.34L60.01 90.87L60.07 90.86L60.07 78.9Z" fill="#EBEBEB" fill-opacity="1.000000" fill-rule="nonzero"/>
		<path d="M74.35 60.06L72.95 75.45L60.03 78.91L60.03 90.87L83.79 84.34L83.96 82.4L85.98 60.06L74.35 60.06Z" fill="#FFFFFF" fill-opacity="1.000000" fill-rule="nonzero"/>
		<path d="M60.04 25.78L60.04 37.28L32.04 37.28L31.81 34.69L31.28 28.87L31 25.78L60.04 25.78ZM60 49.05L60 60.54L47.25 60.54L47.02 57.96L46.49 52.13L46.21 49.05L60 49.05Z" fill="#EBEBEB" fill-opacity="1.000000" fill-rule="nonzero"/>
	</g>
</svg>
