<svg width="16.667114" height="16.667114" viewBox="0 0 16.6671 16.6671" fill="none" xmlns="http://www.w3.org/2000/svg" xmlns:xlink="http://www.w3.org/1999/xlink">
	<desc>
			Created with Pixso.
	</desc>
	<defs/>
	<path id="Vector" d="M9.62 7.04C8.93 6.36 8.01 5.98 7.04 5.98C6.08 5.98 5.15 6.36 4.47 7.04L1.89 9.62C1.21 10.3 0.83 11.22 0.83 12.19C0.83 13.15 1.21 14.08 1.89 14.76C2.58 15.45 3.5 15.83 4.47 15.83C5.43 15.83 6.36 15.45 7.04 14.76L8.33 13.48" stroke="#000000" stroke-opacity="1.000000" stroke-width="1.666667" stroke-linejoin="round" stroke-linecap="round"/>
	<path id="Vector" d="M7.04 9.62C7.72 10.3 8.65 10.68 9.62 10.68C10.58 10.68 11.51 10.3 12.19 9.62L14.76 7.04C15.45 6.36 15.83 5.43 15.83 4.47C15.83 3.5 15.45 2.58 14.76 1.89C14.08 1.21 13.15 0.83 12.19 0.83C11.22 0.83 10.3 1.21 9.62 1.89L8.33 3.18" stroke="#000000" stroke-opacity="1.000000" stroke-width="1.666667" stroke-linejoin="round" stroke-linecap="round"/>
</svg>
